<svg width="20" height="20" viewBox="0 0 20 20" fill="none" xmlns="http://www.w3.org/2000/svg">
<path fill-rule="evenodd" clip-rule="evenodd" d="M6.66667 1.66663C7.1269 1.66663 7.5 2.03972 7.5 2.49996H12.5C12.5 2.03972 12.8731 1.66663 13.3333 1.66663C13.7936 1.66663 14.1667 2.03972 14.1667 2.49996C16.4679 2.49996 18.3333 4.36544 18.3333 6.66663V14.1666C18.3333 16.4678 16.4679 18.3333 14.1667 18.3333H5.83333C3.53215 18.3333 1.66667 16.4678 1.66667 14.1666V6.66663C1.66667 4.36544 3.53215 2.49996 5.83333 2.49996C5.83333 2.03972 6.20643 1.66663 6.66667 1.66663ZM5 8.33329C5 7.87306 5.3731 7.49996 5.83333 7.49996H14.1667C14.6269 7.49996 15 7.87306 15 8.33329C15 8.79353 14.6269 9.16663 14.1667 9.16663H5.83333C5.3731 9.16663 5 8.79353 5 8.33329ZM12.5 14.1666C12.5 13.7064 12.8731 13.3333 13.3333 13.3333H14.1667C14.6269 13.3333 15 13.7064 15 14.1666C15 14.6269 14.6269 15 14.1667 15H13.3333C12.8731 15 12.5 14.6269 12.5 14.1666Z" fill="white"/>
</svg>
