<svg width="13" height="7" viewBox="0 0 13 7" fill="none" xmlns="http://www.w3.org/2000/svg">
<path d="M6.50005 6.975C6.36672 6.975 6.24172 6.95417 6.12505 6.9125C6.00838 6.87084 5.90005 6.8 5.80005 6.7L1.20005 2.1C1.01672 1.91667 0.925049 1.68334 0.925049 1.4C0.925049 1.11667 1.01672 0.883336 1.20005 0.700003C1.38338 0.51667 1.61672 0.425003 1.90005 0.425003C2.18338 0.425003 2.41672 0.51667 2.60005 0.700003L6.50005 4.6L10.4 0.700003C10.5834 0.51667 10.8167 0.425003 11.1 0.425003C11.3834 0.425003 11.6167 0.51667 11.8 0.700003C11.9834 0.883336 12.075 1.11667 12.075 1.4C12.075 1.68334 11.9834 1.91667 11.8 2.1L7.20005 6.7C7.10005 6.8 6.99172 6.87084 6.87505 6.9125C6.75838 6.95417 6.63338 6.975 6.50005 6.975Z" fill="#292929"/>
</svg>
