<svg width="159" height="37" viewBox="0 0 159 37" fill="none" xmlns="http://www.w3.org/2000/svg">
<path d="M153.992 27.2328C151.493 27.2423 149.475 29.2757 149.484 31.7747C149.484 31.7779 149.484 31.7804 149.484 31.7829C149.47 34.2819 151.484 36.3191 153.983 36.3331C153.986 36.3331 153.989 36.3331 153.992 36.3331C156.478 36.3331 158.5 34.2946 158.5 31.7829C158.514 29.284 156.5 27.2468 154.001 27.2328C153.998 27.2328 153.995 27.2328 153.992 27.2328ZM139.157 23.7187C139.157 20.2764 136.243 17.4897 132.649 17.4897C129.054 17.4897 126.14 20.2809 126.14 23.7187C126.14 27.1566 129.058 29.944 132.652 29.944C136.247 29.944 139.156 27.1572 139.156 23.7187H139.157ZM139.183 11.6112H146.363V35.8217H139.183V34.2737C137.089 35.7188 134.605 36.4919 132.061 36.4894C125.07 36.4894 119.404 30.7717 119.404 23.7181C119.404 16.6645 125.071 10.9468 132.061 10.9468C134.704 10.9468 137.152 11.7631 139.183 13.1625V11.6106V11.6112ZM81.7032 14.7658V11.6151H74.3491V35.8211H81.7203V24.5172C81.7203 20.7026 85.8137 18.6559 88.6558 18.6559H88.7402V11.6151C85.822 11.6151 83.1451 12.8754 81.7032 14.7658ZM63.3838 23.7187C63.3838 20.2764 60.47 17.4897 56.8752 17.4897C53.2805 17.4897 50.3667 20.2809 50.3667 23.7187C50.3667 27.1566 53.2849 29.944 56.8791 29.944C60.4732 29.944 63.3832 27.1572 63.3832 23.7187H63.3838ZM63.4092 11.6112H70.5943V35.8217H63.4092V34.2737C61.379 35.6693 58.9308 36.4894 56.2877 36.4894C49.297 36.4894 43.6307 30.7717 43.6307 23.7181C43.6307 16.6645 49.2976 10.9468 56.2877 10.9468C58.9308 10.9468 61.379 11.7631 63.4092 13.1625V11.6106V11.6112ZM106.642 10.9639C103.774 10.9639 101.059 11.8603 99.2412 14.3389V11.6157H92.0904V35.8217H99.3301V23.1013C99.3301 19.422 101.775 17.6161 104.722 17.6161C107.877 17.6161 109.695 19.5192 109.695 23.0505V35.8217H116.868V20.4282C116.868 14.795 112.427 10.9639 106.642 10.9639H106.642ZM33.1685 35.8217H40.6877V0.827594H33.1685V35.8217ZM0.141016 35.83H8.10425V0.819336H0.144827L0.140381 35.8306L0.141016 35.83ZM27.992 0.819336C27.992 8.39762 25.0655 15.4512 19.8471 20.6912L30.8505 35.8306H21.0185L9.06345 19.3801L12.1507 17.0456C17.2465 13.2127 20.2295 7.19577 20.1939 0.819336H27.992Z" fill="#0A0B09"/>
</svg>
