<svg width="18" height="14" viewBox="0 0 18 14" fill="none" xmlns="http://www.w3.org/2000/svg">
<path fill-rule="evenodd" clip-rule="evenodd" d="M3.51283 0.384521C1.95511 0.384521 0.692322 1.68339 0.692322 3.28562V11.0219C0.692322 12.6241 1.95511 13.923 3.51284 13.923H14.7949C16.3526 13.923 17.6154 12.6241 17.6154 11.0219V3.28562C17.6154 1.68339 16.3526 0.384521 14.7949 0.384521H3.51283ZM5.45168 3.95456C5.08677 3.66262 4.55429 3.72179 4.26236 4.0867C3.97042 4.45162 4.02959 4.98409 4.3945 5.27603L8.62527 8.66064L9.15386 9.08351L9.68245 8.66064L13.9132 5.27603C14.2781 4.98409 14.3373 4.45162 14.0454 4.0867C13.7534 3.72179 13.221 3.66262 12.856 3.95456L9.15386 6.9163L5.45168 3.95456Z" fill="#009688"/>
</svg>
