<svg width="15" height="15" viewBox="0 0 15 15" fill="none" xmlns="http://www.w3.org/2000/svg">
<path fill-rule="evenodd" clip-rule="evenodd" d="M7.75753 2.98013C7.19189 0.936428 5.15551 -0.325868 3.14035 0.346284C1.82744 0.784178 1.02822 1.60113 0.763278 2.69079C0.517015 3.70362 0.773692 4.79661 1.17233 5.76253C1.9751 7.70766 3.56394 9.63476 4.46352 10.535C5.34236 11.4145 7.26668 13.0102 9.21548 13.8204C10.1831 14.2226 11.2801 14.4838 12.2976 14.2381C13.3927 13.9736 14.2137 13.1703 14.6541 11.8482C15.3252 9.83313 14.0652 7.79518 12.0219 7.22881L12.0219 7.22881C10.6253 6.84169 9.16061 7.21082 8.16105 8.10795C7.92643 7.92626 7.70078 7.72781 7.48558 7.51245C7.26933 7.29604 7.07014 7.06903 6.88783 6.83293C7.77793 5.83302 8.14296 4.37276 7.75753 2.98014L7.75753 2.98013Z" fill="#009688"/>
</svg>
