<svg width="181" height="36" viewBox="0 0 181 36" fill="none" xmlns="http://www.w3.org/2000/svg">
<g clip-path="url(#clip0_5001_310)">
<mask id="mask0_5001_310" style="mask-type:luminance" maskUnits="userSpaceOnUse" x="0" y="0" width="181" height="36">
<path d="M180.254 0.891846H0.351318V35.7567H180.254V0.891846Z" fill="white"/>
</mask>
<g mask="url(#mask0_5001_310)">
<path fill-rule="evenodd" clip-rule="evenodd" d="M71.3394 28.163C64.6916 33.1184 55.0521 35.7546 46.7516 35.7546C35.1203 35.7546 24.6448 31.4115 16.7165 24.1802C16.0948 23.6112 16.6483 22.8375 17.3967 23.2765C25.9486 28.3048 36.5255 31.3327 47.4493 31.3327C54.8182 31.3327 62.918 29.7872 70.3727 26.5939C71.4973 26.1135 72.4405 27.342 71.3394 28.163Z" fill="#F79C34"/>
<path fill-rule="evenodd" clip-rule="evenodd" d="M74.1069 24.9716C73.2552 23.8711 68.4862 24.4499 66.3424 24.7098C65.6934 24.7885 65.592 24.2156 66.1767 23.8002C69.983 21.099 76.2196 21.8787 76.9426 22.7843C77.6715 23.6958 76.7497 30.0116 73.1851 33.0258C72.6355 33.4885 72.1132 33.2424 72.3568 32.6301C73.1597 30.6042 74.9567 26.0721 74.105 24.9716H74.1069Z" fill="#F79C34"/>
<path fill-rule="evenodd" clip-rule="evenodd" d="M66.4944 4.72407V2.10168C66.4964 1.70202 66.7946 1.43623 67.1532 1.4382H78.7942C79.1664 1.4382 79.4666 1.70989 79.4666 2.09971V4.35001C79.4627 4.72801 79.1469 5.2202 78.5895 6.0018L72.5595 14.6998C74.7969 14.6466 77.1649 14.9853 79.1996 16.1409C79.6576 16.4008 79.7823 16.7867 79.8174 17.1647V19.9643C79.8174 20.3502 79.4003 20.7971 78.9598 20.5648C75.3777 18.6688 70.6223 18.4621 66.6601 20.5884C66.2547 20.8069 65.8318 20.3659 65.8318 19.98V17.3183C65.8318 16.893 65.8396 16.1646 66.2645 15.5149L73.2494 5.38951H67.1668C66.7946 5.38951 66.4964 5.12176 66.4944 4.72801V4.72407ZM24.0309 21.1121H20.4897C20.1525 21.0904 19.8836 20.8345 19.8563 20.5077L19.8602 2.14499C19.8602 1.7788 20.1662 1.48545 20.5443 1.48545H23.8419C24.1868 1.5012 24.4636 1.76502 24.485 2.10168V4.49766H24.5532C25.4127 2.17846 27.0323 1.09761 29.2132 1.09761C31.394 1.09761 32.8167 2.18043 33.8088 4.49766C34.6682 2.17846 36.6191 1.09761 38.7006 1.09761C40.1896 1.09761 41.8072 1.7158 42.7992 3.10771C43.9238 4.6532 43.6938 6.89365 43.6938 8.86438L43.6899 20.4525C43.6899 20.8187 43.3858 21.1121 43.0078 21.1121H39.4704C39.1138 21.0884 38.8351 20.8049 38.8351 20.4525V10.719C38.8351 9.9472 38.8994 8.01585 38.7337 7.2815C38.4706 6.04314 37.6774 5.69664 36.6523 5.69664C35.7928 5.69664 34.9002 6.27546 34.5357 7.20275C34.1713 8.132 34.2063 9.67551 34.2063 10.719V20.4525C34.2063 20.8187 33.9004 21.1121 33.5242 21.1121H29.9869C29.6302 21.0884 29.3515 20.8049 29.3515 20.4525L29.3476 10.719C29.3476 8.67144 29.679 5.65923 27.1668 5.65923C24.6546 5.65923 24.7209 8.59466 24.7209 10.719V20.4525C24.7189 20.8187 24.4129 21.1121 24.0368 21.1121H24.0309ZM89.5172 4.84613C86.9057 4.84613 86.74 8.43913 86.74 10.6796C86.74 12.92 86.7069 17.712 89.4841 17.712C92.2613 17.712 92.3607 13.8473 92.3607 11.4907C92.3607 9.94524 92.2925 8.09066 91.8306 6.62196C91.435 5.3462 90.6398 4.84417 89.5153 4.84417L89.5172 4.84613ZM89.4861 1.09761C94.7423 1.09761 97.5839 5.65923 97.5839 11.4533C97.5839 17.2474 94.4442 21.498 89.4861 21.498C84.528 21.498 81.5188 16.9383 81.5188 11.2584C81.5188 5.57851 84.3603 1.09761 89.4861 1.09761ZM104.401 21.1121H100.872C100.519 21.0884 100.236 20.8049 100.236 20.4525L100.231 2.08396C100.262 1.7473 100.554 1.48545 100.911 1.48545H104.195C104.505 1.5012 104.76 1.71383 104.824 1.99733V4.80676H104.89C105.882 2.29461 107.27 1.09761 109.716 1.09761C111.302 1.09761 112.858 1.67642 113.85 3.26128C114.775 4.72998 114.775 7.20078 114.775 8.97857V20.5333C114.737 20.8581 114.448 21.1101 114.097 21.1101H110.548C110.221 21.0904 109.956 20.8463 109.917 20.5333V10.5634C109.917 8.55332 110.149 5.61592 107.703 5.61592C106.843 5.61592 106.05 6.19474 105.653 7.08462C105.156 8.20485 105.089 9.32508 105.089 10.5634V20.4506C105.083 20.8168 104.777 21.1101 104.399 21.1101L104.401 21.1121ZM60.7821 21.0668C60.5482 21.2794 60.211 21.2932 59.946 21.1495C58.7708 20.1612 58.5583 19.7064 57.9152 18.7653C55.9721 20.7656 54.5942 21.366 52.0762 21.366C49.0943 21.366 46.7751 19.5075 46.7751 15.7905C46.7751 12.8866 48.3342 10.9119 50.5521 9.94327C52.4737 9.09079 55.1574 8.93723 57.2116 8.70295V8.23832C57.2116 7.38387 57.2779 6.3798 56.7809 5.64348C56.3502 4.98395 55.5219 4.71423 54.793 4.71423C53.4424 4.71423 52.2418 5.41314 51.9456 6.86215C51.8832 7.18503 51.6513 7.50397 51.3317 7.52169L47.8976 7.14565C47.6073 7.07871 47.2857 6.84443 47.3695 6.39752C48.151 2.24933 51.8189 0.955854 55.1516 0.922385H55.4147C57.12 0.944041 59.2989 1.41655 60.6262 2.70215C62.349 4.32835 62.1834 6.49793 62.1834 8.86045V14.434C62.1834 16.1114 62.8733 16.8458 63.5203 17.7494C63.7484 18.0762 63.7971 18.4621 63.5086 18.7003C62.7856 19.3126 61.4993 20.4407 60.7938 21.0766L60.784 21.0688L60.7821 21.0668ZM57.2136 12.3452C57.2136 13.739 57.2467 14.9006 56.5509 16.1409C55.9877 17.147 55.0931 17.7671 54.0992 17.7671C52.7408 17.7671 51.9475 16.7217 51.9475 15.1723C51.9475 12.1247 54.6527 11.5714 57.2155 11.5714V12.3471L57.2136 12.3452ZM14.3583 21.0668C14.1245 21.2794 13.7854 21.2932 13.5223 21.1495C12.3451 20.1612 12.1346 19.7064 11.4915 18.7653C9.54641 20.7656 8.17046 21.366 5.65243 21.366C2.67056 21.366 0.351318 19.5075 0.351318 15.7905C0.351318 12.8866 1.90852 10.9119 4.12836 9.94327C6.05002 9.09079 8.73371 8.93723 10.7859 8.70295V8.23832C10.7859 7.38387 10.8542 6.3798 10.3552 5.64348C9.92451 4.98395 9.09621 4.71423 8.36731 4.71423C7.01669 4.71423 5.8142 5.41314 5.51991 6.86215C5.45949 7.18503 5.22562 7.50397 4.90404 7.52169L1.47196 7.14565C1.18157 7.07871 0.859991 6.84443 0.943796 6.39752C1.72337 2.24933 5.39128 0.955854 8.72591 0.922385H8.98902C10.6943 0.944041 12.8733 1.41655 14.2005 2.70215C15.9233 4.32835 15.7577 6.49793 15.7577 8.86045V14.434C15.7577 16.1114 16.4476 16.8458 17.0947 17.7494C17.3207 18.0762 17.3714 18.4621 17.083 18.7003C16.3599 19.3126 15.0736 20.4407 14.3661 21.0766L14.3583 21.0688V21.0668ZM10.7879 12.3452C10.7879 13.739 10.821 14.9006 10.1252 16.1409C9.56201 17.147 8.66744 17.7671 7.67348 17.7671C6.31507 17.7671 5.52185 16.7217 5.52185 15.1723C5.52185 12.1247 8.22698 11.5714 10.7898 11.5714V12.3471L10.7879 12.3452ZM163.191 27.6996V26.351C163.191 25.967 163.378 25.7032 163.774 25.7269C164.514 25.8332 165.561 25.9395 166.303 25.784C167.274 25.5792 167.97 24.8842 168.381 23.9333C168.962 22.5926 169.346 21.5117 169.587 20.803L162.22 2.36549C162.096 2.05246 162.059 1.47167 162.678 1.47167H165.253C165.744 1.47167 165.945 1.78667 166.054 2.09577L171.396 17.0722L176.494 2.09577C176.598 1.78864 176.808 1.47167 177.296 1.47167H179.724C180.338 1.47167 180.305 2.05049 180.182 2.36549L172.873 21.3779C171.928 23.9077 170.667 27.9398 167.83 28.6387C166.407 29.0147 164.612 28.8789 163.557 28.4319C163.292 28.2961 163.189 27.9358 163.189 27.6996H163.191ZM159.755 19.9899C159.755 20.3324 159.476 20.614 159.135 20.614H157.319C156.927 20.614 156.658 20.3285 156.609 19.9899L156.426 18.7417C155.592 19.4544 154.567 20.0824 153.456 20.5195C151.32 21.3582 148.857 21.496 146.769 20.2005C145.261 19.2654 144.458 17.4344 144.458 15.5483C144.458 14.0875 144.904 12.6405 145.89 11.5892C147.208 10.152 149.118 9.44714 151.425 9.44714C152.819 9.44714 154.813 9.61251 156.263 10.0909V7.57681C156.263 5.02135 155.198 3.91491 152.39 3.91491C150.244 3.91491 148.601 4.24172 146.317 4.96032C145.951 4.97214 145.736 4.69257 145.736 4.34804V2.91478C145.736 2.57024 146.027 2.23752 146.342 2.13711C147.974 1.41851 150.285 0.971604 152.743 0.888916C155.947 0.888916 159.753 1.61933 159.753 6.59637V19.9879L159.755 19.9899ZM156.265 16.3201V12.5283C155.046 12.1916 153.029 12.0518 152.248 12.0518C151.014 12.0518 149.663 12.3471 148.958 13.113C148.432 13.676 148.192 14.4832 148.192 15.2629C148.192 16.2709 148.537 17.2848 149.344 17.7849C150.281 18.4286 151.735 18.3499 153.103 17.9581C154.417 17.5821 155.651 16.9147 156.263 16.3221L156.265 16.3201ZM132.977 3.97397C137.007 3.97397 138.104 7.17518 138.104 10.841C138.128 13.3118 137.677 15.5149 136.411 16.7769C135.463 17.7219 134.403 17.9778 132.809 17.9778C131.39 17.9778 129.525 17.2297 128.13 16.1902V5.70845C129.582 4.58232 131.433 3.97397 132.977 3.97397ZM127.512 28.3571H125.08C124.738 28.3571 124.462 28.0756 124.462 27.733V2.12727C124.462 1.7847 124.74 1.50317 125.08 1.50317H126.941C127.333 1.50317 127.6 1.78864 127.65 2.12727L127.845 3.468C129.589 1.9048 131.835 0.900729 133.973 0.900729C139.964 0.900729 141.934 5.88761 141.934 11.0733C141.934 16.6213 138.921 21.0806 133.822 21.0806C131.677 21.0806 129.669 20.2813 128.126 18.8913V27.733C128.126 28.0756 127.847 28.3571 127.508 28.3571H127.512Z" fill="#333E47"/>
</g>
</g>
<defs>
<clipPath id="clip0_5001_310">
<rect width="179.903" height="34.8649" fill="white" transform="translate(0.351318 0.891846)"/>
</clipPath>
</defs>
</svg>
