<svg width="38" height="39" viewBox="0 0 38 39" fill="none" xmlns="http://www.w3.org/2000/svg">
<rect x="0.813232" y="0.75" width="37.1667" height="37.5" rx="8" fill="#23BDEE"/>
<g clip-path="url(#clip0_0_1056)">
<path d="M14.2862 9.1875C13.883 9.1875 13.5562 9.51729 13.5562 9.92412V11.3973H15.0163V9.92412C15.0163 9.51729 14.6894 9.1875 14.2862 9.1875Z" fill="white"/>
<path d="M24.5069 9.1875C24.1037 9.1875 23.7769 9.51729 23.7769 9.92412V11.3973H25.237V9.92412C25.237 9.51729 24.9101 9.1875 24.5069 9.1875Z" fill="white"/>
<path d="M27.4273 11.3973H25.2371V14.3438C25.2371 14.7506 24.9102 15.0804 24.507 15.0804C24.1038 15.0804 23.7769 14.7506 23.7769 14.3438V11.3973H15.0162V14.3438C15.0162 14.7506 14.6894 15.0804 14.2862 15.0804C13.883 15.0804 13.5561 14.7506 13.5561 14.3438V11.3973H11.366C10.1564 11.3973 9.17578 12.3867 9.17578 13.6072V27.6027C9.17578 28.8232 10.1564 29.8125 11.366 29.8125H27.4273C28.6369 29.8125 29.6174 28.8232 29.6174 27.6027V13.6072C29.6174 12.3867 28.6369 11.3973 27.4273 11.3973ZM28.1573 27.6027C28.1573 28.0095 27.8304 28.3393 27.4272 28.3393H11.366C10.9627 28.3393 10.6359 28.0095 10.6359 27.6027V18.0268H28.1573V27.6027Z" fill="white"/>
<path d="M15.0164 19.5H13.5562C13.153 19.5 12.8262 19.8298 12.8262 20.2366C12.8262 20.6435 13.153 20.9733 13.5562 20.9733H15.0164C15.4196 20.9733 15.7464 20.6435 15.7464 20.2366C15.7464 19.8298 15.4196 19.5 15.0164 19.5Z" fill="white"/>
<path d="M20.1267 19.5H18.6666C18.2634 19.5 17.9365 19.8298 17.9365 20.2366C17.9365 20.6435 18.2634 20.9733 18.6666 20.9733H20.1267C20.5299 20.9733 20.8568 20.6435 20.8568 20.2366C20.8568 19.8298 20.5299 19.5 20.1267 19.5Z" fill="white"/>
<path d="M25.2371 19.5H23.7769C23.3737 19.5 23.0469 19.8298 23.0469 20.2366C23.0469 20.6435 23.3737 20.9733 23.7769 20.9733H25.2371C25.6403 20.9733 25.9671 20.6435 25.9671 20.2366C25.9671 19.8298 25.6402 19.5 25.2371 19.5Z" fill="white"/>
<path d="M15.0164 22.4464H13.5562C13.153 22.4464 12.8262 22.7762 12.8262 23.183C12.8262 23.5899 13.153 23.9197 13.5562 23.9197H15.0164C15.4196 23.9197 15.7464 23.5899 15.7464 23.183C15.7464 22.7762 15.4196 22.4464 15.0164 22.4464Z" fill="white"/>
<path d="M20.1267 22.4464H18.6666C18.2634 22.4464 17.9365 22.7762 17.9365 23.183C17.9365 23.5899 18.2634 23.9197 18.6666 23.9197H20.1267C20.5299 23.9197 20.8568 23.5899 20.8568 23.183C20.8568 22.7762 20.5299 22.4464 20.1267 22.4464Z" fill="white"/>
<path d="M25.2371 22.4464H23.7769C23.3737 22.4464 23.0469 22.7762 23.0469 23.183C23.0469 23.5899 23.3737 23.9197 23.7769 23.9197H25.2371C25.6403 23.9197 25.9671 23.5899 25.9671 23.183C25.9671 22.7762 25.6402 22.4464 25.2371 22.4464Z" fill="white"/>
<path d="M15.0164 25.3928H13.5562C13.153 25.3928 12.8262 25.7226 12.8262 26.1294C12.8262 26.5363 13.153 26.866 13.5562 26.866H15.0164C15.4196 26.866 15.7464 26.5362 15.7464 26.1294C15.7464 25.7226 15.4196 25.3928 15.0164 25.3928Z" fill="white"/>
<path d="M20.1267 25.3928H18.6666C18.2634 25.3928 17.9365 25.7226 17.9365 26.1294C17.9365 26.5363 18.2634 26.8661 18.6666 26.8661H20.1267C20.5299 26.8661 20.8568 26.5363 20.8568 26.1294C20.8568 25.7226 20.5299 25.3928 20.1267 25.3928Z" fill="white"/>
<path d="M25.2371 25.3928H23.7769C23.3737 25.3928 23.0469 25.7226 23.0469 26.1294C23.0469 26.5363 23.3737 26.8661 23.7769 26.8661H25.2371C25.6403 26.8661 25.9671 26.5363 25.9671 26.1294C25.9671 25.7226 25.6402 25.3928 25.2371 25.3928Z" fill="white"/>
</g>
<defs>
<clipPath id="clip0_0_1056">
<rect width="20.4417" height="20.625" fill="white" transform="translate(9.17578 9.1875)"/>
</clipPath>
</defs>
</svg>
