<svg width="240" height="57" viewBox="0 0 240 57" fill="none" xmlns="http://www.w3.org/2000/svg">
<path d="M14.4462 34.3418L11.4853 32.8313L11.4541 21.0216C11.5538 20.1647 11.6827 19.0167 11.7346 18.5498C12.2084 16.1109 13.8852 13.8717 14.6643 13.0569C17.4819 9.84904 21.9887 7.05133 23.8899 6.05346L27.6611 3.55419C29.2818 2.12604 29.9364 1.25633 30.061 1V5.14713L28.9702 5.88867C26.8508 7.33879 24.2016 8.983 23.1419 9.62384C20.7233 10.8982 18.8512 12.4435 18.2174 13.0569C15.2254 15.5397 14.4566 19.4012 14.4462 21.0216V34.3418Z" fill="#009688" stroke="#009688" stroke-linejoin="round"/>
<path d="M45.6759 34.3693L48.6368 32.8588L48.668 21.0491C48.5682 20.1922 48.4394 19.0441 48.3875 18.5772C47.9137 16.1384 46.2369 13.8991 45.4577 13.0844C42.6402 9.87652 38.1334 7.0788 36.2322 6.08092L32.4609 3.58166C30.8402 2.15351 30.1857 1.25633 30.061 1V5.1746L31.1519 5.91614C33.2713 7.36626 35.9205 9.01047 36.9802 9.65131C39.3988 10.9257 41.2709 12.471 41.9046 13.0844C44.8967 15.5672 45.6655 19.4286 45.6759 21.0491V34.3693Z" fill="#009688"/>
<path d="M48.6368 32.8588L49.1368 32.8601L49.136 33.1654L48.864 33.3042L48.6368 32.8588ZM45.6759 34.3693L45.9031 34.8147L45.1759 35.1857V34.3693H45.6759ZM45.6759 21.0491L46.1759 21.0458V21.0491H45.6759ZM41.9046 13.0844L41.5854 13.4691L41.5706 13.4569L41.5569 13.4436L41.9046 13.0844ZM36.9802 9.65131L36.7471 10.0937L36.7341 10.0868L36.7215 10.0792L36.9802 9.65131ZM31.1519 5.91614L31.433 5.50263L31.4342 5.50348L31.1519 5.91614ZM30.061 5.1746L29.7799 5.5881L29.561 5.43929V5.1746H30.061ZM30.061 1H29.561C29.561 0.767086 29.7219 0.565021 29.9488 0.512752C30.1758 0.460484 30.4088 0.571859 30.5107 0.781315L30.061 1ZM32.4609 3.58166L32.1847 3.99844L32.1561 3.97948L32.1304 3.95679L32.4609 3.58166ZM36.2322 6.08092L35.9998 6.52365L35.9772 6.51179L35.956 6.49771L36.2322 6.08092ZM45.4577 13.0844L45.0964 13.4299L45.089 13.4223L45.0821 13.4143L45.4577 13.0844ZM48.3875 18.5772L48.8783 18.4819L48.8822 18.5018L48.8844 18.522L48.3875 18.5772ZM48.668 21.0491L49.1646 20.9912L49.168 21.0207L49.168 21.0504L48.668 21.0491ZM48.864 33.3042L45.9031 34.8147L45.4487 33.9239L48.4096 32.4134L48.864 33.3042ZM45.1759 34.3693V21.0491H46.1759V34.3693H45.1759ZM45.1759 21.0523C45.1661 19.5193 44.4245 15.825 41.5854 13.4691L42.2239 12.6996C45.369 15.3093 46.1649 19.338 46.1759 21.0458L45.1759 21.0523ZM41.5569 13.4436C40.9547 12.8608 39.1207 11.3443 36.7471 10.0937L37.2133 9.20896C39.6769 10.507 41.5871 12.0812 42.2524 12.7251L41.5569 13.4436ZM36.7215 10.0792C35.6579 9.436 32.9998 7.78637 30.8696 6.32879L31.4342 5.50348C33.5427 6.94614 36.1831 8.58495 37.2389 9.22346L36.7215 10.0792ZM30.8708 6.32964L29.7799 5.5881L30.3421 4.76109L31.433 5.50263L30.8708 6.32964ZM29.561 5.1746V1H30.561V5.1746H29.561ZM30.5107 0.781315C30.5424 0.84663 30.7001 1.09375 31.0757 1.52151C31.4414 1.93801 31.9946 2.50434 32.7915 3.20652L32.1304 3.95679C31.3065 3.23082 30.7222 2.6345 30.3242 2.18129C29.9362 1.73934 29.7043 1.4097 29.6114 1.21869L30.5107 0.781315ZM32.7371 3.16487L36.5084 5.66414L35.956 6.49771L32.1847 3.99844L32.7371 3.16487ZM36.4646 5.6382C38.3884 6.64794 42.9571 9.47967 45.8334 12.7544L45.0821 13.4143C42.3233 10.2734 37.8784 7.50965 35.9998 6.52365L36.4646 5.6382ZM45.8191 12.7388C46.6329 13.5898 48.3792 15.9123 48.8783 18.4819L47.8966 18.6726C47.4483 16.3645 45.8409 14.2085 45.0964 13.4299L45.8191 12.7388ZM48.8844 18.522C48.9363 18.9886 49.065 20.1356 49.1646 20.9912L48.1713 21.1069C48.0714 20.2487 47.9425 19.0997 47.8905 18.6325L48.8844 18.522ZM49.168 21.0504L49.1368 32.8601L48.1368 32.8574L48.168 21.0477L49.168 21.0504Z" fill="#009688"/>
<path d="M30 53.5L0.202815 36.7037C-0.0215898 36.7037 -0.0153564 37.015 0.015811 37.1706L1.0755 41.9769C1.22511 42.5701 1.69885 43.1579 1.91702 43.3776L30 57V53.5Z" fill="#009688"/>
<path d="M30 53.4999L60.013 36.6763C60.2374 36.6763 60.2312 36.9875 60.2 37.1432L59.1403 41.9494C58.9907 42.5427 58.517 43.1304 58.2988 43.3501L30 56.9999V53.4999Z" fill="#009688"/>
<path d="M30.0002 48.5C20.8744 40.3925 12.9713 36.4566 10.1454 35.4404L4.22363 36.7862L30.0302 51.5L30.0002 48.5Z" fill="#FF6600"/>
<path d="M30.0002 48.5C39.126 40.3925 47.0893 36.4841 49.9151 35.4679L55.8369 36.8137L30.0002 51.5V50V48.5Z" fill="#FF6600"/>
<path d="M31.9621 31.6777H28.3155V31.7876H28.0973V32.4742H28.5025C28.4402 32.9777 28.2718 34.1495 28.0973 34.8087C27.9228 35.4678 27.7545 37.5185 27.6921 38.4615L27.5986 44.641L30.1232 46.6733L32.6166 44.641V39.5875C32.6166 37.5222 32.3049 35.7059 32.1491 35.0559L31.7751 32.4742H32.1491V31.7876H31.9621V31.6777Z" fill="#FF6600"/>
<path d="M26 27.4808L30 22V26.6731C29.7554 26.7308 29.1927 26.9904 29.1927 27.5096C29.1927 28.0865 29.7554 28.25 30 28.375V31H28.5321L26 27.4808Z" fill="#FF6600"/>
<path d="M34.3662 27.9172L31.0001 23L31.0001 26.5C31.206 26.5518 32.0001 26.8673 32.0001 27.5C32.0001 27.9933 31.206 28.3879 31.0001 28.5L31.0001 31H32.0001L34.3662 27.9172Z" stroke="#FF6600" stroke-width="0.5"/>
<path d="M81.1621 35.7451H75.3291L74.2334 39H70.7744L76.4248 23.166H80.1631L85.7705 39H82.1826L81.1621 35.7451ZM80.2383 33.0166L78.2617 26.7861L76.2207 33.0166H80.2383ZM87.79 23.166H91.0986V36.1533H98.9404V39H87.79V23.166ZM110.005 39H106.922V23.166H111.734L114.613 35.6162L117.471 23.166H122.229V39H119.146V28.29C119.146 27.9821 119.15 27.5524 119.157 27.001C119.164 26.4424 119.168 26.0127 119.168 25.7119L116.171 39H112.959L109.983 25.7119C109.983 26.0127 109.987 26.4424 109.994 27.001C110.001 27.5524 110.005 27.9821 110.005 28.29V39ZM134.669 32.8984V23.166H138.031V32.8984C138.031 34.5814 137.77 35.8919 137.247 36.8301C136.273 38.5488 134.415 39.4082 131.672 39.4082C128.929 39.4082 127.067 38.5488 126.086 36.8301C125.563 35.8919 125.302 34.5814 125.302 32.8984V23.166H128.664V32.8984C128.664 33.987 128.793 34.7819 129.051 35.2832C129.452 36.1712 130.326 36.6152 131.672 36.6152C133.011 36.6152 133.881 36.1712 134.282 35.2832C134.54 34.7819 134.669 33.987 134.669 32.8984ZM150.471 35.7451H144.638L143.542 39H140.083L145.733 23.166H149.472L155.079 39H151.491L150.471 35.7451ZM149.547 33.0166L147.57 26.7861L145.529 33.0166H149.547ZM160.128 39H157.045V23.166H161.857L164.736 35.6162L167.594 23.166H172.353V39H169.27V28.29C169.27 27.9821 169.273 27.5524 169.28 27.001C169.287 26.4424 169.291 26.0127 169.291 25.7119L166.294 39H163.082L160.106 25.7119C160.106 26.0127 160.11 26.4424 160.117 27.001C160.124 27.5524 160.128 27.9821 160.128 28.29V39ZM184.695 35.7451H178.862L177.767 39H174.308L179.958 23.166H183.696L189.304 39H185.716L184.695 35.7451ZM183.771 33.0166L181.795 26.7861L179.754 33.0166H183.771ZM191.323 23.166H194.632V36.1533H202.474V39H191.323V23.166ZM214.043 35.7451H208.21L207.114 39H203.655L209.306 23.166H213.044L218.651 39H215.063L214.043 35.7451ZM213.119 33.0166L211.143 26.7861L209.102 33.0166H213.119ZM230.543 23.166V25.9697H225.806V39H222.476V25.9697H217.717V23.166H230.543Z" fill="#009688"/>
</svg>
