<svg width="151" height="65" viewBox="0 0 151 65" fill="none" xmlns="http://www.w3.org/2000/svg">
<path fill-rule="evenodd" clip-rule="evenodd" d="M81.8658 9.35516L71.3824 11.6712V2.9218L81.8658 0.648682V9.35516ZM103.667 14.2016C99.5739 14.2016 96.9426 16.1745 95.4808 17.5469L94.9379 14.8878H85.7494V64.8966L96.1908 62.6234L96.2326 50.4858C97.7362 51.6009 99.9498 53.1878 103.625 53.1878C111.101 53.1878 117.909 47.0118 117.909 33.4159C117.867 20.9781 110.976 14.2016 103.667 14.2016ZM101.161 43.7519C98.6969 43.7519 97.2351 42.8512 96.2327 41.7361L96.191 25.8243C97.2769 24.5805 98.7804 23.7227 101.161 23.7227C104.962 23.7227 107.593 28.0974 107.593 33.7158C107.593 39.463 105.004 43.7519 101.161 43.7519ZM150.821 33.8448C150.821 22.8652 145.642 14.2016 135.744 14.2016C125.803 14.2016 119.789 22.8652 119.789 33.759C119.789 46.6686 126.889 53.1878 137.08 53.1878C142.05 53.1878 145.809 52.0298 148.649 50.4V41.8222C145.809 43.2804 142.551 44.181 138.417 44.181C134.365 44.181 130.773 42.7228 130.314 37.6619H150.738C150.738 37.4255 150.753 36.8885 150.77 36.2698C150.793 35.4292 150.821 34.4377 150.821 33.8448ZM130.188 29.7701C130.188 24.9236 133.07 22.9078 135.701 22.9078C138.249 22.9078 140.964 24.9236 140.964 29.7701H130.188ZM71.382 14.9307H81.8653V52.4586H71.382V14.9307ZM59.4797 14.9308L60.1479 18.1046C62.6121 13.4725 67.4987 14.4161 68.8352 14.9308V24.7953C67.5405 24.3235 63.3639 23.723 60.8997 27.0255V52.4587H50.4583V14.9308H59.4797ZM39.2644 5.62375L29.0735 7.85398L29.0317 42.2081C29.0317 48.5557 33.6677 53.2306 39.8491 53.2306C43.2739 53.2306 45.7798 52.5873 47.1581 51.8153V43.1088C45.8216 43.6664 39.2226 45.6393 39.2226 39.2917V24.0661H47.1581V14.9307H39.2226L39.2644 5.62375ZM14.5815 23.5085C12.3679 23.5085 11.0314 24.1519 11.0314 25.8245C11.0314 27.6508 13.3315 28.4542 16.1851 29.4509C20.8372 31.0757 26.9601 33.2142 26.9859 41.1359C26.9859 48.8131 21.0134 53.2307 12.3261 53.2307C8.73425 53.2307 4.80825 52.5016 0.924025 50.786V40.5784C4.43236 42.5513 8.85954 44.0095 12.3261 44.0095C14.665 44.0095 16.3356 43.3662 16.3356 41.3933C16.3356 39.3703 13.8422 38.4457 10.832 37.3293C6.24763 35.6293 0.4646 33.4847 0.4646 26.3392C0.4646 18.7478 6.103 14.2016 14.5815 14.2016C18.048 14.2016 21.4728 14.7591 24.9394 16.1745V26.2534C21.7652 24.495 17.7557 23.5085 14.5815 23.5085Z" fill="#6461FC"/>
</svg>
